<svg xmlns="http://www.w3.org/2000/svg" width="174.147" height="134.149" viewBox="0 0 174.147 134.149">
  <g id="Group_151" data-name="Group 151" transform="translate(-100.926 -187.745)">
    <g id="Group_150" data-name="Group 150">
      <path id="Path_131" data-name="Path 131" d="M359.488,664.969a25.2,25.2,0,0,1-5.79,0,.281.281,0,0,0-.2-.009,30.058,30.058,0,0,1-7.622-1.716c-.834-.276-1.009-.5-.386-1.282,7.2-8.99,14.355-18.018,21.565-27a1.452,1.452,0,0,0,.009-2.228Q356.275,619.3,345.575,605.8c-.761-.957-.756-.949.4-1.379a32.533,32.533,0,0,1,7.934-1.754l.843-.047.369-.02,4.157.068a31.286,31.286,0,0,1,2.344,62.042,7.264,7.264,0,0,1-1.93.246A.289.289,0,0,0,359.488,664.969Z" transform="translate(-151.307 -414.854)" fill="#282828"/>
      <path id="Path_132" data-name="Path 132" d="M342.834,653.241a20.877,20.877,0,0,1-5.152-.006l-.217-.011c-12.432-.819-23.7-10.208-27.079-22.587-.407-1.49-.709-3.009-1.04-4.519a.977.977,0,0,1,.175-.879c.378.015.756.042,1.135.042q31.884,0,63.766,0c.377,0,.755-.039,1.132-.059.8.368.009.624-.115.785-1.965,2.529-3.943,5.05-5.961,7.538-2.778,3.422-5.351,7.017-8.358,10.248a30.491,30.491,0,0,1-15.726,9.175,19.222,19.222,0,0,1-2.336.258Z" transform="translate(-169.848 -403.115)" fill="#00aeff"/>
      <path id="Path_133" data-name="Path 133" d="M342.8,602.664a28.338,28.338,0,0,1,18.913,10.229c4.9,5.693,9.446,11.683,14.146,17.541-.29.419-.664.26-.972.26q-32.169.014-64.337.017c-.793,0-1.27-.026-1.119-1.094a31.165,31.165,0,0,1,28.208-26.949l4.148-.065.366.014Z" transform="translate(-169.8 -414.851)" fill="#00aeff"/>
    </g>
    <g id="Group_143" data-name="Group 143" transform="translate(100.926 259.563)">
      <path id="Path_134" data-name="Path 134" d="M284.588,686.79a1.267,1.267,0,0,1-.6-1.223,2.237,2.237,0,0,1,1.347-1.845,5.067,5.067,0,0,0,2.17-1.8,6.888,6.888,0,0,0,.474-2.994V660.378a7.071,7.071,0,0,0-.474-3.018,4.736,4.736,0,0,0-2.221-1.771,2.235,2.235,0,0,1-1.347-1.845,1.263,1.263,0,0,1,.6-1.221,4.791,4.791,0,0,1,2.1-.325h16.361a6.413,6.413,0,0,0,3.241-.649,3.1,3.1,0,0,1,1.4-.349,1.665,1.665,0,0,1,1.148.4,4.171,4.171,0,0,1,.9,1.522q.449,1.121,1.2,3.566a18.734,18.734,0,0,1,1.147,5.237,2.239,2.239,0,0,1-.4,1.5,1.581,1.581,0,0,1-1.247.45,1.981,1.981,0,0,1-1.3-.5,3.379,3.379,0,0,1-.948-1.347q-1.148-3.192-1.721-4.389a3.378,3.378,0,0,0-1.321-1.6,5.214,5.214,0,0,0-2.344-.4h-4.839a2.246,2.246,0,0,0-1.771.524,3.4,3.4,0,0,0-.424,2.02v8.08a2.134,2.134,0,0,0,.2,1.072.863.863,0,0,0,.8.325h2.743a2.082,2.082,0,0,0,1.247-.275,1.1,1.1,0,0,0,.349-.922,7.324,7.324,0,0,0-.15-1.3,3.41,3.41,0,0,1-.049-.649,1.428,1.428,0,0,1,.348-1.048,1.663,1.663,0,0,1,1.2-.349,1.458,1.458,0,0,1,1.072.425,4.809,4.809,0,0,1,.872,1.621q.449,1.2,1.148,3.691a26.567,26.567,0,0,1,1.1,5.138,1.411,1.411,0,0,1-.349,1.072,1.661,1.661,0,0,1-1.147.323,1.869,1.869,0,0,1-1.271-.374,2.543,2.543,0,0,1-.674-1.223,4.44,4.44,0,0,0-1.072-2.044,2.437,2.437,0,0,0-1.671-.548h-2.944q-1.1,0-1.422.524a3.284,3.284,0,0,0-.324,1.671v5.535a6.628,6.628,0,0,0,.249,2.07,2.567,2.567,0,0,0,.974,1.247,10.366,10.366,0,0,0,2.319,1.123q1.745.85,1.745,2.145a1.256,1.256,0,0,1-.773,1.247,7.309,7.309,0,0,1-2.719.349H286.684A4.8,4.8,0,0,1,284.588,686.79Z" transform="translate(-283.939 -651.2)" fill="#282828"/>
      <path id="Path_135" data-name="Path 135" d="M303.3,683.213a1.365,1.365,0,0,1-1.047-1.3,1.382,1.382,0,0,1,1-1.346,3.72,3.72,0,0,0,1.672-1.024,2.872,2.872,0,0,0,.649-1.446,18.1,18.1,0,0,0,.125-2.468v-9.626a4.708,4.708,0,0,0-.251-1.745,1.223,1.223,0,0,0-1.1-.7,9.224,9.224,0,0,1-1.771-.275.77.77,0,0,1-.574-.823,1.262,1.262,0,0,1,.5-1.072,6.607,6.607,0,0,1,1.546-.773q2.743-.9,4.289-1.346a9.871,9.871,0,0,1,2.694-.45,2.453,2.453,0,0,1,1.546.374,1.722,1.722,0,0,1,.448,1.372v2.1q0,.948.2.948a6.2,6.2,0,0,0,.848-1.4,7.908,7.908,0,0,1,2.269-2.544,6.247,6.247,0,0,1,3.865-1.147,4.8,4.8,0,0,1,3.817,1.571,6.5,6.5,0,0,1,1.371,4.415,5.1,5.1,0,0,1-1.048,3.142,3.316,3.316,0,0,1-2.793,1.4,2.946,2.946,0,0,1-1.97-.7,2.3,2.3,0,0,1-.723-2.046,3.383,3.383,0,0,0,.05-.7,1.61,1.61,0,0,0-1.847-1.8,2.8,2.8,0,0,0-1.97.9,6.453,6.453,0,0,0-1.5,2.52,10.935,10.935,0,0,0-.574,3.667v4.687a18.1,18.1,0,0,0,.125,2.468,2.832,2.832,0,0,0,.624,1.422,4.008,4.008,0,0,0,1.646,1.048,2.427,2.427,0,0,1,.773.574,1.231,1.231,0,0,1,.273.822,1.349,1.349,0,0,1-.972,1.3,12.532,12.532,0,0,1-3.966.4h-4.19A13.337,13.337,0,0,1,303.3,683.213Z" transform="translate(-274.568 -647.4)" fill="#282828"/>
      <path id="Path_136" data-name="Path 136" d="M319.1,686.468a1.365,1.365,0,0,1-1.046-1.3,1.382,1.382,0,0,1,1-1.346,3.719,3.719,0,0,0,1.672-1.024,2.872,2.872,0,0,0,.649-1.446,18.092,18.092,0,0,0,.125-2.468V669.26a4.895,4.895,0,0,0-.251-1.8,1.134,1.134,0,0,0-1.1-.649,6.8,6.8,0,0,1-1.745-.249.815.815,0,0,1-.6-.849,1.263,1.263,0,0,1,.5-1.072,6.616,6.616,0,0,1,1.546-.773q5.087-1.8,6.984-1.8a2.452,2.452,0,0,1,1.546.374,1.65,1.65,0,0,1,.448,1.323v15.062a17.851,17.851,0,0,0,.125,2.468,2.833,2.833,0,0,0,.624,1.422,4.013,4.013,0,0,0,1.645,1.048,2.4,2.4,0,0,1,.773.574,1.232,1.232,0,0,1,.275.822,1.351,1.351,0,0,1-.974,1.3,12.521,12.521,0,0,1-3.964.4h-4.19A13.337,13.337,0,0,1,319.1,686.468Zm2.1-28.38a2.917,2.917,0,0,1-1.347-2.494,2.814,2.814,0,0,1,1.347-2.42,6.055,6.055,0,0,1,3.492-.923,5.606,5.606,0,0,1,3.366.923,2.856,2.856,0,0,1,1.271,2.42,2.965,2.965,0,0,1-1.271,2.494,5.5,5.5,0,0,1-3.366.948A5.934,5.934,0,0,1,321.193,658.088Z" transform="translate(-266.37 -650.655)" fill="#282828"/>
      <path id="Path_137" data-name="Path 137" d="M332.432,682.715a9.289,9.289,0,0,1-3.044-2,4.9,4.9,0,0,1-1.5-3.591,2.69,2.69,0,0,1,.624-1.821,2.152,2.152,0,0,1,1.721-.723,2.778,2.778,0,0,1,1.671.524,4.553,4.553,0,0,1,1.321,1.87,4.678,4.678,0,0,0,4.689,3.392,5.411,5.411,0,0,0,3.168-.8,2.5,2.5,0,0,0,1.122-2.145,3.027,3.027,0,0,0-1.248-2.444,12.627,12.627,0,0,0-4.339-1.845q-4.338-1.2-6.135-3.016a6.691,6.691,0,0,1-1.8-4.913,5.266,5.266,0,0,1,1.3-3.518,8.352,8.352,0,0,1,3.442-2.344,12.858,12.858,0,0,1,4.64-.823,15.718,15.718,0,0,1,5.885,1.1,8.513,8.513,0,0,1,3.193,1.946,5.065,5.065,0,0,1,1.5,3.542,2.351,2.351,0,0,1-.6,1.621,2.089,2.089,0,0,1-1.646.674,2.851,2.851,0,0,1-1.621-.45,3.847,3.847,0,0,1-1.223-1.646,4.322,4.322,0,0,0-4.488-3.241,3.817,3.817,0,0,0-2.295.649,1.956,1.956,0,0,0-.9,1.645,3.025,3.025,0,0,0,1.1,2.4,10.118,10.118,0,0,0,4.09,1.646q4.739,1.146,6.684,3.067a6.483,6.483,0,0,1,1.944,4.813,6.33,6.33,0,0,1-3.042,5.685,15.037,15.037,0,0,1-8.18,1.946A14.709,14.709,0,0,1,332.432,682.715Z" transform="translate(-261.134 -647.4)" fill="#282828"/>
      <path id="Path_138" data-name="Path 138" d="M348.833,682.231a11.271,11.271,0,0,1-4.415-4.514,13.379,13.379,0,0,1-1.546-6.458,12.817,12.817,0,0,1,1.671-6.534,12.137,12.137,0,0,1,10.55-6.135,12.946,12.946,0,0,1,4.964.972,10.167,10.167,0,0,1,3.841,2.644,5.553,5.553,0,0,1,1.47,3.765,3.044,3.044,0,0,1-.6,1.921,2.074,2.074,0,0,1-1.745.773,3.24,3.24,0,0,1-2.17-.7,4.8,4.8,0,0,1-1.321-2.145,6.888,6.888,0,0,0-1.572-2.994,3.891,3.891,0,0,0-2.918-1.048,4.051,4.051,0,0,0-3.317,1.821,8.075,8.075,0,0,0-1.372,4.964,13.516,13.516,0,0,0,1.9,7.53,6.206,6.206,0,0,0,5.538,2.893,7.969,7.969,0,0,0,3.665-.849,7.442,7.442,0,0,0,2.62-2.094,1.5,1.5,0,0,1,.946-.548,1.014,1.014,0,0,1,.823.325,1.232,1.232,0,0,1,.275.822,1.749,1.749,0,0,1-.05.5,9.27,9.27,0,0,1-3.616,4.787,11.758,11.758,0,0,1-7.008,1.946A13.027,13.027,0,0,1,348.833,682.231Z" transform="translate(-253.362 -647.366)" fill="#282828"/>
      <path id="Path_139" data-name="Path 139" d="M365.54,682.265a12.015,12.015,0,0,1-4.839-4.538,13.265,13.265,0,0,1,0-13.068,11.867,11.867,0,0,1,4.839-4.514,16.391,16.391,0,0,1,14.213,0,11.877,11.877,0,0,1,4.839,4.514,13.36,13.36,0,0,1,0,13.118,11.858,11.858,0,0,1-4.839,4.514,15.187,15.187,0,0,1-7.107,1.621A14.978,14.978,0,0,1,365.54,682.265Zm11.571-3.392a7.665,7.665,0,0,0,1.422-4.888,20.132,20.132,0,0,0-.8-5.436,13.4,13.4,0,0,0-2.319-4.763,4.418,4.418,0,0,0-3.515-1.921,4.609,4.609,0,0,0-3.741,1.771,7.381,7.381,0,0,0-1.448,4.813,20.384,20.384,0,0,0,.8,5.536,13.671,13.671,0,0,0,2.293,4.763,4.354,4.354,0,0,0,3.492,1.92A4.615,4.615,0,0,0,377.11,678.873Z" transform="translate(-245.005 -647.4)" fill="#282828"/>
      <path id="Path_140" data-name="Path 140" d="M378.745,683.064a1.367,1.367,0,0,1-1.046-1.3,1.536,1.536,0,0,1,1-1.4,3.866,3.866,0,0,0,1.671-1,2.755,2.755,0,0,0,.649-1.448,17.928,17.928,0,0,0,.125-2.444v-9.476a4.517,4.517,0,0,0-.249-1.721,1.339,1.339,0,0,0-1.1-.723,8.014,8.014,0,0,1-1.745-.3.783.783,0,0,1-.6-.8,1.263,1.263,0,0,1,.5-1.072,6.605,6.605,0,0,1,1.546-.773q5.085-1.8,6.982-1.8a2.453,2.453,0,0,1,1.546.374,1.65,1.65,0,0,1,.448,1.323v2.494c0,.4.067.6.2.6a6.442,6.442,0,0,0,.9-1.372,7.885,7.885,0,0,1,2.594-2.544,8.451,8.451,0,0,1,4.689-1.173q7.231,0,8.279,9.229l.8,7.48q.248,2.144.424,2.942a2.407,2.407,0,0,0,.6,1.223,4.8,4.8,0,0,0,1.522.873,1.726,1.726,0,0,1,1.1,1.6,1.3,1.3,0,0,1-.723,1.171,6.109,6.109,0,0,1-2.769.425l-2.992-.05-2.994.05a11.211,11.211,0,0,1-3.392-.349,1.263,1.263,0,0,1-.948-1.247,1.485,1.485,0,0,1,1.048-1.5,3.51,3.51,0,0,0,1.621-.922,2.957,2.957,0,0,0,.424-1.821,19.609,19.609,0,0,0-.2-2.643l-.7-5.984a7.86,7.86,0,0,0-1.347-4.09,3.739,3.739,0,0,0-3.092-1.3,4.152,4.152,0,0,0-2.344.773,5.833,5.833,0,0,0-1.921,2.369,9.005,9.005,0,0,0-.773,3.94v4.737a18.117,18.117,0,0,0,.125,2.47,2.845,2.845,0,0,0,.624,1.422,4.024,4.024,0,0,0,1.646,1.047,2.448,2.448,0,0,1,.773.574,1.235,1.235,0,0,1,.273.823,1.351,1.351,0,0,1-.972,1.3,12.534,12.534,0,0,1-3.966.4l-2.094-.05-2.094.05A13.332,13.332,0,0,1,378.745,683.064Z" transform="translate(-235.423 -647.4)" fill="#282828"/>
    </g>
    <g id="Group_144" data-name="Group 144" transform="translate(143.086 304.445)">
      <path id="Path_141" data-name="Path 141" d="M311.7,681.239h5.755c2.283,0,3.712,1.151,3.712,3.452a3.614,3.614,0,0,0,.223,6.089c0,2.284-1.411,3.452-3.714,3.452H311.7Zm2.21,5.531h3.173a1.81,1.81,0,0,0,0-3.619h-3.173Zm0,5.532h3.4a1.594,1.594,0,0,0,1.82-1.782,1.619,1.619,0,0,0-1.82-1.838h-3.4Z" transform="translate(-311.697 -680.496)" fill="#282828"/>
      <path id="Path_142" data-name="Path 142" d="M327.259,693.06h-1.6l-.278-.964a3.429,3.429,0,0,1-2.766,1.151c-2.117,0-3.49-1.206-3.49-3.657V683.5h2.061v6.238c0,1.188.761,1.727,1.967,1.727s2.043-.6,2.043-1.783V683.5h2.061Z" transform="translate(-307.842 -679.323)" fill="#282828"/>
      <path id="Path_143" data-name="Path 143" d="M327.589,696.773l1.355-3.714H328.7l-3.49-9.56h2.21L330,690.759l2.562-7.259h2.079L329.8,696.773Z" transform="translate(-304.685 -679.323)" fill="#282828"/>
      <path id="Path_144" data-name="Path 144" d="M341.6,689.616c0,2.45-1.6,3.694-4.066,3.694-2.451,0-4.064-1.244-4.064-3.694v-2.544c0-2.45,1.613-3.7,4.083-3.7,2.451,0,4.048,1.245,4.048,3.7Zm-2.061-2.675c0-1.206-.781-1.781-1.987-1.781s-2,.576-2,1.781v2.8c0,1.208.8,1.783,1.987,1.783,1.224,0,2-.576,2-1.783Z" transform="translate(-300.402 -679.387)" fill="#282828"/>
      <path id="Path_145" data-name="Path 145" d="M340.064,683.564h1.578l.278.964a3.47,3.47,0,0,1,2.786-1.151c2.116,0,3.49,1.208,3.49,3.659v6.088h-2.061v-6.236c0-1.188-.761-1.727-1.968-1.727s-2.041.576-2.041,1.781v6.182h-2.061Z" transform="translate(-296.979 -679.387)" fill="#282828"/>
      <path id="Path_146" data-name="Path 146" d="M356.386,690.979c0,2.413-1.355,3.694-3.509,3.694a3.359,3.359,0,0,1-2.766-1.17l-.279.983h-1.577V680.75h2.06v4.976a3.5,3.5,0,0,1,2.581-.986c2.135,0,3.49,1.282,3.49,3.7Zm-2.061-2.675c0-1.168-.761-1.781-1.968-1.781-1.224,0-2.041.63-2.041,1.82v2.728a1.778,1.778,0,0,0,2.025,1.821c1.224,0,1.985-.614,1.985-1.783Z" transform="translate(-292.729 -680.75)" fill="#282828"/>
      <path id="Path_147" data-name="Path 147" d="M362.8,690.08c-.185,2.116-1.69,3.231-4.046,3.231-2.47,0-4.086-1.28-4.086-3.714v-2.524c0-2.45,1.616-3.7,4.086-3.7,2.45,0,4.046,1.245,4.046,3.7v1.912h-6.053v.743c0,1.115.706,1.8,2.006,1.8s1.854-.614,1.965-1.449Zm-6.053-2.673h3.992v-.465c0-1.206-.781-1.781-1.985-1.781s-2.006.576-2.006,1.781Z" transform="translate(-289.401 -679.387)" fill="#282828"/>
      <path id="Path_148" data-name="Path 148" d="M365.746,689.375l-1.874-.39c-1.671-.316-2.729-1.226-2.729-2.729,0-1.929,1.373-2.878,3.881-2.878,2.468,0,3.843.986,3.843,2.934v.2H366.8v-.149c0-.872-.576-1.28-1.782-1.28s-1.8.39-1.8,1.133c0,.538.334.892,1.169,1.059l1.894.389c1.651.316,2.71,1.224,2.71,2.692,0,2.006-1.5,2.953-3.99,2.953s-3.992-.984-3.992-2.933v-.205h2.06v.131c0,.89.706,1.3,1.932,1.3,1.206,0,1.929-.39,1.929-1.171C366.933,689.894,366.581,689.522,365.746,689.375Z" transform="translate(-286.11 -679.387)" fill="#282828"/>
      <path id="Path_149" data-name="Path 149" d="M370.354,690.893c0,1.577.539,1.874,2.673,1.651v1.707c-3.917.632-4.733-.817-4.733-3.471v-4.307h-1.672v-1.781h1.672v-2.877l2.06-.612v3.489h2.673v1.781h-2.673Z" transform="translate(-283.2 -680.515)" fill="#282828"/>
    </g>
  </g>
</svg>
